<?xml version="1.0" encoding="UTF-8" standalone="no"?>
<!DOCTYPE svg PUBLIC "-//W3C//DTD SVG 1.1//EN"
 "http://www.w3.org/Graphics/SVG/1.1/DTD/svg11.dtd">
<!-- Generated by graphviz version 2.43.0 (0)
 -->
<!-- Title: openarm01 Pages: 1 -->
<svg width="1669pt" height="1485pt"
 viewBox="0.00 0.00 1669.00 1485.00" xmlns="http://www.w3.org/2000/svg" xmlns:xlink="http://www.w3.org/1999/xlink">
<g id="graph0" class="graph" transform="scale(1 1) rotate(0) translate(4 1481)">
<title>openarm01</title>
<polygon fill="#f8f9fa" stroke="transparent" points="-4,4 -4,-1481 1665,-1481 1665,4 -4,4"/>
<g id="clust1" class="cluster">
<title>cluster_launchers</title>
<polygon fill="#eaf0fb" stroke="#2471a3" stroke-width="2.5" points="140,-1219 140,-1469 1612,-1469 1612,-1219 140,-1219"/>
<text text-anchor="middle" x="876" y="-1454.6" font-family="Helvetica Bold" font-size="13.00" fill="#1a1a1a">Launchers</text>
</g>
<g id="clust3" class="cluster">
<title>cluster_jc</title>
<polygon fill="#fef6f5" stroke="#c0392b" stroke-width="2.5" points="787,-916 787,-1192 1251,-1192 1251,-916 787,-916"/>
<text text-anchor="middle" x="1019" y="-1177.6" font-family="Helvetica Bold" font-size="13.00" fill="#7b241c">Command Interface</text>
</g>
<g id="clust4" class="cluster">
<title>cluster_tier1</title>
<polygon fill="#faf5ff" stroke="#7d3c98" stroke-width="2.5" points="618,-579 618,-868 1420,-868 1420,-579 618,-579"/>
<text text-anchor="middle" x="1019" y="-853.6" font-family="Helvetica Bold" font-size="13.00" fill="#4a235a">Backbone + Vision</text>
</g>
<g id="clust6" class="cluster">
<title>cluster_hw</title>
<polygon fill="#eaf4fb" stroke="#2e86c1" stroke-width="2.5" points="8,-246 8,-509 1106,-509 1106,-246 8,-246"/>
<text text-anchor="middle" x="557" y="-494.6" font-family="Helvetica Bold" font-size="13.00" fill="#1a5276">Component Nodes &#160;— &#160;no depends_on, each owns its own sim/real abstraction</text>
</g>
<g id="clust8" class="cluster">
<title>cluster_safety</title>
<polygon fill="#fef5e7" stroke="#e67e22" stroke-width="2.5" points="973,-8 973,-219 1653,-219 1653,-8 973,-8"/>
<text text-anchor="middle" x="1313" y="-204.6" font-family="Helvetica Bold" font-size="13.00" fill="#784212">Safety &amp; Kinematics Root Nodes &#160;— &#160;no depends_on</text>
</g>
<!-- launcher_real -->
<g id="node1" class="node">
<title>launcher_real</title>
<path fill="#d6eaf8" stroke="#1a5276" stroke-width="2.5" d="M782,-1416C782,-1416 444,-1416 444,-1416 438,-1416 432,-1410 432,-1404 432,-1404 432,-1262 432,-1262 432,-1256 438,-1250 444,-1250 444,-1250 782,-1250 782,-1250 788,-1250 794,-1256 794,-1262 794,-1262 794,-1404 794,-1404 794,-1410 788,-1416 782,-1416"/>
<text text-anchor="middle" x="613" y="-1388.4" font-family="Helvetica,sans-Serif" font-size="12.00">REAL ROBOT</text>
<text text-anchor="middle" x="613" y="-1375.4" font-family="Helvetica,sans-Serif" font-size="12.00">openarm01_teleop.json5</text>
<text text-anchor="middle" x="613" y="-1362.4" font-family="Helvetica,sans-Serif" font-size="12.00">─────────────────────────────</text>
<text text-anchor="middle" x="613" y="-1349.4" font-family="Helvetica,sans-Serif" font-size="12.00">robot_initializer &#160;&#160;variant: default (no&#45;op) &#160;&#160;&#160;&#160;×1</text>
<text text-anchor="middle" x="613" y="-1336.4" font-family="Helvetica,sans-Serif" font-size="12.00">depth_camera &#160;&#160;&#160;&#160;&#160;&#160;&#160;variant: realsense_d435 &#160;&#160;&#160;&#160;&#160;&#160;×1</text>
<text text-anchor="middle" x="613" y="-1323.4" font-family="Helvetica,sans-Serif" font-size="12.00">arm &#160;&#160;&#160;&#160;&#160;&#160;&#160;&#160;&#160;&#160;&#160;&#160;&#160;&#160;&#160;&#160;variant: default (real hw) &#160;&#160;&#160;×2</text>
<text text-anchor="middle" x="613" y="-1310.4" font-family="Helvetica,sans-Serif" font-size="12.00">gripper &#160;&#160;&#160;&#160;&#160;&#160;&#160;&#160;&#160;&#160;&#160;&#160;variant: default (real hw) &#160;&#160;&#160;×2</text>
<text text-anchor="middle" x="613" y="-1297.4" font-family="Helvetica,sans-Serif" font-size="12.00">backbone &#160;&#160;&#160;&#160;&#160;&#160;&#160;&#160;&#160;&#160;&#160;(no variant) &#160;&#160;&#160;&#160;&#160;&#160;&#160;&#160;&#160;&#160;&#160;&#160;&#160;&#160;&#160;&#160;&#160;×1</text>
<text text-anchor="middle" x="613" y="-1284.4" font-family="Helvetica,sans-Serif" font-size="12.00">joint_commander &#160;&#160;&#160;&#160;variant: keyboard &#160;&#160;&#160;&#160;&#160;&#160;&#160;&#160;&#160;&#160;&#160;&#160;×1</text>
<text text-anchor="middle" x="613" y="-1271.4" font-family="Helvetica,sans-Serif" font-size="12.00">ik + collisions &#160;&#160;&#160;&#160;(no variant) &#160;&#160;&#160;&#160;&#160;&#160;&#160;&#160;&#160;&#160;&#160;&#160;&#160;&#160;&#160;&#160;×1 each</text>
</g>
<!-- joint_commander -->
<g id="node5" class="node">
<title>joint_commander</title>
<path fill="#fadadd" stroke="#922b21" stroke-width="3" d="M1220.5,-1152C1220.5,-1152 817.5,-1152 817.5,-1152 811.5,-1152 805.5,-1146 805.5,-1140 805.5,-1140 805.5,-946 805.5,-946 805.5,-940 811.5,-934 817.5,-934 817.5,-934 1220.5,-934 1220.5,-934 1226.5,-934 1232.5,-940 1232.5,-946 1232.5,-946 1232.5,-1140 1232.5,-1140 1232.5,-1146 1226.5,-1152 1220.5,-1152"/>
<text text-anchor="middle" x="1019" y="-1124.4" font-family="Helvetica,sans-Serif" font-size="12.00">openarm01_joint_commander</text>
<text text-anchor="middle" x="1019" y="-1111.4" font-family="Helvetica,sans-Serif" font-size="12.00">─────────────────────────────</text>
<text text-anchor="middle" x="1019" y="-1098.4" font-family="Helvetica,sans-Serif" font-size="12.00">Variants:</text>
<text text-anchor="middle" x="1019" y="-1085.4" font-family="Helvetica,sans-Serif" font-size="12.00"> &#160;keyboard (default) &#160;TUI input → user types target pose</text>
<text text-anchor="middle" x="1019" y="-1072.4" font-family="Helvetica,sans-Serif" font-size="12.00"> &#160;pose_estimation &#160;&#160;&#160;&#160;reads video_stream from depth_camera,</text>
<text text-anchor="middle" x="1019" y="-1059.4" font-family="Helvetica,sans-Serif" font-size="12.00"> &#160;&#160;&#160;&#160;&#160;&#160;&#160;&#160;&#160;&#160;&#160;&#160;&#160;&#160;&#160;&#160;&#160;&#160;&#160;&#160;&#160;AprilTag/ArUco detection (OpenCV)</text>
<text text-anchor="middle" x="1019" y="-1046.4" font-family="Helvetica,sans-Serif" font-size="12.00"> &#160;&#160;&#160;&#160;&#160;&#160;&#160;&#160;&#160;&#160;&#160;&#160;&#160;&#160;&#160;&#160;&#160;&#160;&#160;&#160;&#160;publishes teleop/marker_pose (6DoF)</text>
<text text-anchor="middle" x="1019" y="-1033.4" font-family="Helvetica,sans-Serif" font-size="12.00"> &#160;&#160;&#160;&#160;&#160;&#160;&#160;&#160;&#160;&#160;&#160;&#160;&#160;&#160;&#160;&#160;&#160;&#160;&#160;&#160;&#160;+ teleop/hand_pose (gripper signal)</text>
<text text-anchor="middle" x="1019" y="-1020.4" font-family="Helvetica,sans-Serif" font-size="12.00">Instances: ×1 &#160;(commander)</text>
<text text-anchor="middle" x="1019" y="-1007.4" font-family="Helvetica,sans-Serif" font-size="12.00">─────────────────────────────</text>
<text text-anchor="middle" x="1019" y="-994.4" font-family="Helvetica,sans-Serif" font-size="12.00">CONSUMES:</text>
<text text-anchor="middle" x="1019" y="-981.4" font-family="Helvetica,sans-Serif" font-size="12.00"> &#160;ACTION &#160;move_arm &#160;&#160;&#160;&#160;&#160;&#160;← backbone</text>
<text text-anchor="middle" x="1019" y="-968.4" font-family="Helvetica,sans-Serif" font-size="12.00"> &#160;TOPIC &#160;&#160;video_stream &#160;&#160;← depth_camera</text>
<text text-anchor="middle" x="1019" y="-955.4" font-family="Helvetica,sans-Serif" font-size="12.00"> &#160;TOPIC &#160;&#160;joint_states &#160;&#160;← arm &#160;[EXT — no depends_on on arm]</text>
</g>
<!-- launcher_real&#45;&gt;joint_commander -->
<!-- launcher_isaac -->
<g id="node2" class="node">
<title>launcher_isaac</title>
<path fill="#d5f5e3" stroke="#1e8449" stroke-width="2.5" d="M1182,-1429C1182,-1429 856,-1429 856,-1429 850,-1429 844,-1423 844,-1417 844,-1417 844,-1249 844,-1249 844,-1243 850,-1237 856,-1237 856,-1237 1182,-1237 1182,-1237 1188,-1237 1194,-1243 1194,-1249 1194,-1249 1194,-1417 1194,-1417 1194,-1423 1188,-1429 1182,-1429"/>
<text text-anchor="middle" x="1019" y="-1401.4" font-family="Helvetica,sans-Serif" font-size="12.00">ISAAC SIM</text>
<text text-anchor="middle" x="1019" y="-1388.4" font-family="Helvetica,sans-Serif" font-size="12.00">openarm01_teleop_isaac.json5</text>
<text text-anchor="middle" x="1019" y="-1375.4" font-family="Helvetica,sans-Serif" font-size="12.00">─────────────────────────────</text>
<text text-anchor="middle" x="1019" y="-1362.4" font-family="Helvetica,sans-Serif" font-size="12.00">robot_initializer &#160;&#160;variant: isaac &#160;&#160;&#160;&#160;&#160;&#160;&#160;&#160;&#160;&#160;&#160;&#160;&#160;&#160;×1</text>
<text text-anchor="middle" x="1019" y="-1349.4" font-family="Helvetica,sans-Serif" font-size="12.00"> &#160;&#160;&#160;&#160;&#160;&#160;&#160;&#160;&#160;&#160;&#160;&#160;&#160;&#160;&#160;&#160;&#160;&#160;&#160;spawns Isaac Sim, polls ready</text>
<text text-anchor="middle" x="1019" y="-1336.4" font-family="Helvetica,sans-Serif" font-size="12.00">depth_camera &#160;&#160;&#160;&#160;&#160;&#160;&#160;variant: isaac &#160;&#160;&#160;&#160;&#160;&#160;&#160;&#160;&#160;&#160;&#160;&#160;&#160;&#160;×3</text>
<text text-anchor="middle" x="1019" y="-1323.4" font-family="Helvetica,sans-Serif" font-size="12.00"> &#160;&#160;&#160;&#160;&#160;&#160;&#160;&#160;&#160;&#160;&#160;&#160;&#160;&#160;&#160;&#160;&#160;&#160;&#160;torso · left_arm · right_arm</text>
<text text-anchor="middle" x="1019" y="-1310.4" font-family="Helvetica,sans-Serif" font-size="12.00">arm &#160;&#160;&#160;&#160;&#160;&#160;&#160;&#160;&#160;&#160;&#160;&#160;&#160;&#160;&#160;&#160;variant: isaac &#160;&#160;&#160;&#160;&#160;&#160;&#160;&#160;&#160;&#160;&#160;&#160;&#160;&#160;×2</text>
<text text-anchor="middle" x="1019" y="-1297.4" font-family="Helvetica,sans-Serif" font-size="12.00">gripper &#160;&#160;&#160;&#160;&#160;&#160;&#160;&#160;&#160;&#160;&#160;&#160;variant: isaac &#160;&#160;&#160;&#160;&#160;&#160;&#160;&#160;&#160;&#160;&#160;&#160;&#160;&#160;×2</text>
<text text-anchor="middle" x="1019" y="-1284.4" font-family="Helvetica,sans-Serif" font-size="12.00">backbone &#160;&#160;&#160;&#160;&#160;&#160;&#160;&#160;&#160;&#160;&#160;(no variant) &#160;&#160;&#160;&#160;&#160;&#160;&#160;&#160;&#160;&#160;&#160;&#160;&#160;&#160;&#160;&#160;×1</text>
<text text-anchor="middle" x="1019" y="-1271.4" font-family="Helvetica,sans-Serif" font-size="12.00">joint_commander &#160;&#160;&#160;&#160;variant: keyboard &#160;&#160;&#160;&#160;&#160;&#160;&#160;&#160;&#160;&#160;&#160;×1</text>
<text text-anchor="middle" x="1019" y="-1258.4" font-family="Helvetica,sans-Serif" font-size="12.00">ik + collisions &#160;&#160;&#160;&#160;(no variant) &#160;&#160;&#160;&#160;&#160;&#160;&#160;&#160;&#160;&#160;&#160;&#160;&#160;&#160;&#160;×1 each</text>
</g>
<!-- launcher_isaac&#45;&gt;joint_commander -->
<!-- launcher_mujoco -->
<g id="node3" class="node">
<title>launcher_mujoco</title>
<path fill="#fdecea" stroke="#922b21" stroke-width="2.5" d="M1582,-1429C1582,-1429 1256,-1429 1256,-1429 1250,-1429 1244,-1423 1244,-1417 1244,-1417 1244,-1249 1244,-1249 1244,-1243 1250,-1237 1256,-1237 1256,-1237 1582,-1237 1582,-1237 1588,-1237 1594,-1243 1594,-1249 1594,-1249 1594,-1417 1594,-1417 1594,-1423 1588,-1429 1582,-1429"/>
<text text-anchor="middle" x="1419" y="-1401.4" font-family="Helvetica,sans-Serif" font-size="12.00">MUJOCO SIM</text>
<text text-anchor="middle" x="1419" y="-1388.4" font-family="Helvetica,sans-Serif" font-size="12.00">openarm01_teleop_mujoco.json5</text>
<text text-anchor="middle" x="1419" y="-1375.4" font-family="Helvetica,sans-Serif" font-size="12.00">─────────────────────────────</text>
<text text-anchor="middle" x="1419" y="-1362.4" font-family="Helvetica,sans-Serif" font-size="12.00">robot_initializer &#160;&#160;variant: mujoco &#160;&#160;&#160;&#160;&#160;&#160;&#160;&#160;&#160;&#160;&#160;&#160;&#160;×1</text>
<text text-anchor="middle" x="1419" y="-1349.4" font-family="Helvetica,sans-Serif" font-size="12.00"> &#160;&#160;&#160;&#160;&#160;&#160;&#160;&#160;&#160;&#160;&#160;&#160;&#160;&#160;&#160;&#160;&#160;&#160;&#160;spawns MuJoCo, polls ready</text>
<text text-anchor="middle" x="1419" y="-1336.4" font-family="Helvetica,sans-Serif" font-size="12.00">depth_camera &#160;&#160;&#160;&#160;&#160;&#160;&#160;variant: mujoco &#160;&#160;&#160;&#160;&#160;&#160;&#160;&#160;&#160;&#160;&#160;&#160;&#160;×3</text>
<text text-anchor="middle" x="1419" y="-1323.4" font-family="Helvetica,sans-Serif" font-size="12.00"> &#160;&#160;&#160;&#160;&#160;&#160;&#160;&#160;&#160;&#160;&#160;&#160;&#160;&#160;&#160;&#160;&#160;&#160;&#160;torso · left_arm · right_arm</text>
<text text-anchor="middle" x="1419" y="-1310.4" font-family="Helvetica,sans-Serif" font-size="12.00">arm &#160;&#160;&#160;&#160;&#160;&#160;&#160;&#160;&#160;&#160;&#160;&#160;&#160;&#160;&#160;&#160;variant: mujoco &#160;&#160;&#160;&#160;&#160;&#160;&#160;&#160;&#160;&#160;&#160;&#160;&#160;×2</text>
<text text-anchor="middle" x="1419" y="-1297.4" font-family="Helvetica,sans-Serif" font-size="12.00">gripper &#160;&#160;&#160;&#160;&#160;&#160;&#160;&#160;&#160;&#160;&#160;&#160;variant: mujoco &#160;&#160;&#160;&#160;&#160;&#160;&#160;&#160;&#160;&#160;&#160;&#160;&#160;×2</text>
<text text-anchor="middle" x="1419" y="-1284.4" font-family="Helvetica,sans-Serif" font-size="12.00">backbone &#160;&#160;&#160;&#160;&#160;&#160;&#160;&#160;&#160;&#160;&#160;(no variant) &#160;&#160;&#160;&#160;&#160;&#160;&#160;&#160;&#160;&#160;&#160;&#160;&#160;&#160;&#160;&#160;×1</text>
<text text-anchor="middle" x="1419" y="-1271.4" font-family="Helvetica,sans-Serif" font-size="12.00">joint_commander &#160;&#160;&#160;&#160;variant: keyboard &#160;&#160;&#160;&#160;&#160;&#160;&#160;&#160;&#160;&#160;&#160;×1</text>
<text text-anchor="middle" x="1419" y="-1258.4" font-family="Helvetica,sans-Serif" font-size="12.00">ik + collisions &#160;&#160;&#160;&#160;(no variant) &#160;&#160;&#160;&#160;&#160;&#160;&#160;&#160;&#160;&#160;&#160;&#160;&#160;&#160;&#160;×1 each</text>
</g>
<!-- launcher_mujoco&#45;&gt;joint_commander -->
<!-- legend -->
<g id="node4" class="node">
<title>legend</title>
<path fill="#ffffff" stroke="#bdc3c7" stroke-width="1.5" d="M369.5,-1393C369.5,-1393 170.5,-1393 170.5,-1393 164.5,-1393 158.5,-1387 158.5,-1381 158.5,-1381 158.5,-1285 158.5,-1285 158.5,-1279 164.5,-1273 170.5,-1273 170.5,-1273 369.5,-1273 369.5,-1273 375.5,-1273 381.5,-1279 381.5,-1285 381.5,-1285 381.5,-1381 381.5,-1381 381.5,-1387 375.5,-1393 369.5,-1393"/>
<text text-anchor="middle" x="270" y="-1366.2" font-family="Helvetica,sans-Serif" font-size="11.00">LEGEND</text>
<text text-anchor="middle" x="270" y="-1354.2" font-family="Helvetica,sans-Serif" font-size="11.00">─────────────────</text>
<text text-anchor="middle" x="270" y="-1342.2" font-family="Helvetica,sans-Serif" font-size="11.00">── depends_on</text>
<text text-anchor="middle" x="270" y="-1330.2" font-family="Helvetica,sans-Serif" font-size="11.00">┄┄ service call (dotted blue)</text>
<text text-anchor="middle" x="270" y="-1318.2" font-family="Helvetica,sans-Serif" font-size="11.00">━━ action (thick purple)</text>
<text text-anchor="middle" x="270" y="-1306.2" font-family="Helvetica,sans-Serif" font-size="11.00">╌╌ topic (dashed green)</text>
<text text-anchor="middle" x="270" y="-1294.2" font-family="Helvetica,sans-Serif" font-size="11.00">╌╌ EXT topic (no depends_on)</text>
</g>
<!-- backbone -->
<g id="node6" class="node">
<title>backbone</title>
<path fill="#fef9e7" stroke="#9a7d0a" stroke-width="3" d="M988.5,-828C988.5,-828 647.5,-828 647.5,-828 641.5,-828 635.5,-822 635.5,-816 635.5,-816 635.5,-609 635.5,-609 635.5,-603 641.5,-597 647.5,-597 647.5,-597 988.5,-597 988.5,-597 994.5,-597 1000.5,-603 1000.5,-609 1000.5,-609 1000.5,-816 1000.5,-816 1000.5,-822 994.5,-828 988.5,-828"/>
<text text-anchor="middle" x="818" y="-800.4" font-family="Helvetica,sans-Serif" font-size="12.00">openarm01_backbone</text>
<text text-anchor="middle" x="818" y="-787.4" font-family="Helvetica,sans-Serif" font-size="12.00">─────────────────────────────</text>
<text text-anchor="middle" x="818" y="-774.4" font-family="Helvetica,sans-Serif" font-size="12.00">NO VARIANTS — sim/real agnostic &#160;&#160;×1 &#160;(backbone)</text>
<text text-anchor="middle" x="818" y="-761.4" font-family="Helvetica,sans-Serif" font-size="12.00">─────────────────────────────</text>
<text text-anchor="middle" x="818" y="-748.4" font-family="Helvetica,sans-Serif" font-size="12.00">EXPOSES:</text>
<text text-anchor="middle" x="818" y="-735.4" font-family="Helvetica,sans-Serif" font-size="12.00"> &#160;ACTION &#160;move_arm &#160;&#160;&#160;&#160;&#160;&#160;&#160;&#160;&#160;&#160;→ joint_commander</text>
<text text-anchor="middle" x="818" y="-722.4" font-family="Helvetica,sans-Serif" font-size="12.00">CONSUMES:</text>
<text text-anchor="middle" x="818" y="-709.4" font-family="Helvetica,sans-Serif" font-size="12.00"> &#160;ACTION &#160;move_arm &#160;&#160;&#160;&#160;&#160;&#160;&#160;&#160;&#160;&#160;→ arm</text>
<text text-anchor="middle" x="818" y="-696.4" font-family="Helvetica,sans-Serif" font-size="12.00"> &#160;ACTION &#160;move_gripper &#160;&#160;&#160;&#160;&#160;&#160;→ gripper</text>
<text text-anchor="middle" x="818" y="-683.4" font-family="Helvetica,sans-Serif" font-size="12.00"> &#160;SVC &#160;&#160;&#160;&#160;is_ready &#160;&#160;&#160;&#160;&#160;&#160;&#160;&#160;&#160;&#160;← robot_initializer</text>
<text text-anchor="middle" x="818" y="-670.4" font-family="Helvetica,sans-Serif" font-size="12.00"> &#160;SVC &#160;&#160;&#160;&#160;get_arm_id &#160;&#160;&#160;&#160;&#160;&#160;&#160;&#160;← arm</text>
<text text-anchor="middle" x="818" y="-657.4" font-family="Helvetica,sans-Serif" font-size="12.00"> &#160;SVC &#160;&#160;&#160;&#160;get_gripper_id &#160;&#160;&#160;&#160;← gripper</text>
<text text-anchor="middle" x="818" y="-644.4" font-family="Helvetica,sans-Serif" font-size="12.00"> &#160;SVC &#160;&#160;&#160;&#160;solve_ik &#160;&#160;&#160;&#160;&#160;&#160;&#160;&#160;&#160;&#160;← inverse_kinematics</text>
<text text-anchor="middle" x="818" y="-631.4" font-family="Helvetica,sans-Serif" font-size="12.00"> &#160;SVC &#160;&#160;&#160;&#160;check_collisions &#160;&#160;← collisions_detection</text>
<text text-anchor="middle" x="818" y="-618.4" font-family="Helvetica,sans-Serif" font-size="12.00"> &#160;TOPICS &#160;(15) &#160;&#160;&#160;&#160;&#160;&#160;&#160;&#160;&#160;&#160;&#160;&#160;&#160;&#160;← arm</text>
</g>
<!-- joint_commander&#45;&gt;backbone -->
<g id="edge6" class="edge">
<title>joint_commander&#45;&gt;backbone</title>
<path fill="none" stroke="#2c3e50" stroke-width="1.8" d="M883.21,-933.97C857.26,-913.32 838,-898 838,-898 838,-898 835.11,-871.3 831.52,-838.21"/>
<polygon fill="#2c3e50" stroke="#2c3e50" stroke-width="1.8" points="835,-837.81 830.44,-828.25 828.04,-838.57 835,-837.81"/>
<text text-anchor="middle" x="867.5" y="-884.5" font-family="Helvetica,sans-Serif" font-size="10.00" fill="#2c3e50">depends_on</text>
</g>
<!-- joint_commander&#45;&gt;backbone -->
<g id="edge18" class="edge">
<title>joint_commander&#45;&gt;backbone</title>
<path fill="none" stroke="#7d3c98" stroke-width="4" d="M952.91,-933.98C933.92,-902.96 913.08,-868.89 893.57,-837.01"/>
<polygon fill="#7d3c98" stroke="#7d3c98" stroke-width="4" points="896.31,-834.78 888.11,-828.08 890.34,-838.43 896.31,-834.78"/>
<text text-anchor="middle" x="974.5" y="-884.5" font-family="Helvetica,sans-Serif" font-size="10.00" fill="#7d3c98">action: move_arm</text>
</g>
<!-- depth_camera -->
<g id="node7" class="node">
<title>depth_camera</title>
<path fill="#f5eef8" stroke="#6c3483" stroke-width="2" d="M1389.5,-815C1389.5,-815 1062.5,-815 1062.5,-815 1056.5,-815 1050.5,-809 1050.5,-803 1050.5,-803 1050.5,-622 1050.5,-622 1050.5,-616 1056.5,-610 1062.5,-610 1062.5,-610 1389.5,-610 1389.5,-610 1395.5,-610 1401.5,-616 1401.5,-622 1401.5,-622 1401.5,-803 1401.5,-803 1401.5,-809 1395.5,-815 1389.5,-815"/>
<text text-anchor="middle" x="1226" y="-787.4" font-family="Helvetica,sans-Serif" font-size="12.00">depth_camera</text>
<text text-anchor="middle" x="1226" y="-774.4" font-family="Helvetica,sans-Serif" font-size="12.00">─────────────────────────────</text>
<text text-anchor="middle" x="1226" y="-761.4" font-family="Helvetica,sans-Serif" font-size="12.00">Variants:</text>
<text text-anchor="middle" x="1226" y="-748.4" font-family="Helvetica,sans-Serif" font-size="12.00"> &#160;realsense_d435 &#160;| &#160;realsense_d405</text>
<text text-anchor="middle" x="1226" y="-735.4" font-family="Helvetica,sans-Serif" font-size="12.00"> &#160;isaac &#160;| &#160;mujoco</text>
<text text-anchor="middle" x="1226" y="-722.4" font-family="Helvetica,sans-Serif" font-size="12.00">Instances: ×3 &#160;(torso_front · left_arm · right_arm)</text>
<text text-anchor="middle" x="1226" y="-709.4" font-family="Helvetica,sans-Serif" font-size="12.00">─────────────────────────────</text>
<text text-anchor="middle" x="1226" y="-696.4" font-family="Helvetica,sans-Serif" font-size="12.00">EMITS:</text>
<text text-anchor="middle" x="1226" y="-683.4" font-family="Helvetica,sans-Serif" font-size="12.00"> &#160;TOPIC &#160;video_stream &#160;(RGBA, sensor_data)</text>
<text text-anchor="middle" x="1226" y="-670.4" font-family="Helvetica,sans-Serif" font-size="12.00">EXPOSES:</text>
<text text-anchor="middle" x="1226" y="-657.4" font-family="Helvetica,sans-Serif" font-size="12.00"> &#160;SVC &#160;video_stream_info</text>
<text text-anchor="middle" x="1226" y="-644.4" font-family="Helvetica,sans-Serif" font-size="12.00"> &#160;SVC &#160;set_exposure · set_white_balance</text>
<text text-anchor="middle" x="1226" y="-631.4" font-family="Helvetica,sans-Serif" font-size="12.00"> &#160;&#160;&#160;&#160;&#160;&#160;set_gain · set_brightness · set_contrast</text>
</g>
<!-- joint_commander&#45;&gt;depth_camera -->
<g id="edge7" class="edge">
<title>joint_commander&#45;&gt;depth_camera</title>
<path fill="none" stroke="#2c3e50" stroke-width="1.8" d="M1073.2,-933.59C1088.95,-902.1 1102,-876 1102,-876 1102,-876 1120.08,-852.3 1142.44,-823"/>
<polygon fill="#2c3e50" stroke="#2c3e50" stroke-width="1.8" points="1145.24,-825.1 1148.53,-815.03 1139.68,-820.86 1145.24,-825.1"/>
<text text-anchor="middle" x="1131.5" y="-884.5" font-family="Helvetica,sans-Serif" font-size="10.00" fill="#2c3e50">depends_on</text>
</g>
<!-- robot_initializer -->
<g id="node8" class="node">
<title>robot_initializer</title>
<path fill="#aed6f1" stroke="#1a5276" stroke-width="2" d="M350,-456C350,-456 38,-456 38,-456 32,-456 26,-450 26,-444 26,-444 26,-289 26,-289 26,-283 32,-277 38,-277 38,-277 350,-277 350,-277 356,-277 362,-283 362,-289 362,-289 362,-444 362,-444 362,-450 356,-456 350,-456"/>
<text text-anchor="middle" x="194" y="-428.4" font-family="Helvetica,sans-Serif" font-size="12.00">openarm01_robot_initializer</text>
<text text-anchor="middle" x="194" y="-415.4" font-family="Helvetica,sans-Serif" font-size="12.00">─────────────────────────────</text>
<text text-anchor="middle" x="194" y="-402.4" font-family="Helvetica,sans-Serif" font-size="12.00">Variants: default &#160;| &#160;isaac &#160;| &#160;mujoco</text>
<text text-anchor="middle" x="194" y="-389.4" font-family="Helvetica,sans-Serif" font-size="12.00">Instances: ×1 &#160;(robot_init)</text>
<text text-anchor="middle" x="194" y="-376.4" font-family="Helvetica,sans-Serif" font-size="12.00">─────────────────────────────</text>
<text text-anchor="middle" x="194" y="-363.4" font-family="Helvetica,sans-Serif" font-size="12.00">default → no&#45;op, is_ready always true</text>
<text text-anchor="middle" x="194" y="-350.4" font-family="Helvetica,sans-Serif" font-size="12.00">isaac &#160;&#160;→ spawns Isaac Sim, polls until loaded</text>
<text text-anchor="middle" x="194" y="-337.4" font-family="Helvetica,sans-Serif" font-size="12.00">mujoco &#160;→ spawns MuJoCo, &#160;&#160;&#160;polls until loaded</text>
<text text-anchor="middle" x="194" y="-324.4" font-family="Helvetica,sans-Serif" font-size="12.00">─────────────────────────────</text>
<text text-anchor="middle" x="194" y="-311.4" font-family="Helvetica,sans-Serif" font-size="12.00">EXPOSES:</text>
<text text-anchor="middle" x="194" y="-298.4" font-family="Helvetica,sans-Serif" font-size="12.00"> &#160;SVC &#160;is_ready &#160;→ &#160;{ ready: bool }</text>
</g>
<!-- backbone&#45;&gt;robot_initializer -->
<g id="edge8" class="edge">
<title>backbone&#45;&gt;robot_initializer</title>
<path fill="none" stroke="#2c3e50" stroke-width="1.8" d="M635.49,-667.97C449.13,-623.52 187,-561 187,-561 187,-561 187,-517 187,-517 187,-517 188.07,-494.1 189.38,-466.23"/>
<polygon fill="#2c3e50" stroke="#2c3e50" stroke-width="1.8" points="192.88,-466.35 189.85,-456.19 185.88,-466.02 192.88,-466.35"/>
<text text-anchor="middle" x="216.5" y="-536.5" font-family="Helvetica,sans-Serif" font-size="10.00" fill="#2c3e50">depends_on</text>
</g>
<!-- backbone&#45;&gt;robot_initializer -->
<g id="edge13" class="edge">
<title>backbone&#45;&gt;robot_initializer</title>
<path fill="none" stroke="#2471a3" stroke-width="1.8" stroke-dasharray="1,5" d="M635.42,-653.53C501.89,-611.13 344,-561 344,-561 344,-561 306.43,-512.54 268.9,-464.12"/>
<polygon fill="#2471a3" stroke="#2471a3" stroke-width="1.8" points="271.53,-461.8 262.63,-456.04 266,-466.09 271.53,-461.8"/>
<text text-anchor="middle" x="376" y="-536.5" font-family="Helvetica,sans-Serif" font-size="10.00" fill="#2471a3">svc: is_ready</text>
</g>
<!-- arm -->
<g id="node9" class="node">
<title>arm</title>
<path fill="#a9dfbf" stroke="#1e8449" stroke-width="2" d="M705.5,-469C705.5,-469 424.5,-469 424.5,-469 418.5,-469 412.5,-463 412.5,-457 412.5,-457 412.5,-276 412.5,-276 412.5,-270 418.5,-264 424.5,-264 424.5,-264 705.5,-264 705.5,-264 711.5,-264 717.5,-270 717.5,-276 717.5,-276 717.5,-457 717.5,-457 717.5,-463 711.5,-469 705.5,-469"/>
<text text-anchor="middle" x="565" y="-441.4" font-family="Helvetica,sans-Serif" font-size="12.00">openarm01_arm</text>
<text text-anchor="middle" x="565" y="-428.4" font-family="Helvetica,sans-Serif" font-size="12.00">─────────────────────────────</text>
<text text-anchor="middle" x="565" y="-415.4" font-family="Helvetica,sans-Serif" font-size="12.00">Variants: real (default) &#160;| &#160;isaac &#160;| &#160;mujoco</text>
<text text-anchor="middle" x="565" y="-402.4" font-family="Helvetica,sans-Serif" font-size="12.00">Instances: ×2 &#160;(left_arm · right_arm)</text>
<text text-anchor="middle" x="565" y="-389.4" font-family="Helvetica,sans-Serif" font-size="12.00">─────────────────────────────</text>
<text text-anchor="middle" x="565" y="-376.4" font-family="Helvetica,sans-Serif" font-size="12.00">EXPOSES:</text>
<text text-anchor="middle" x="565" y="-363.4" font-family="Helvetica,sans-Serif" font-size="12.00"> &#160;SVC &#160;&#160;&#160;get_arm_id &#160;→ &#160;{ arm_id: u8 }</text>
<text text-anchor="middle" x="565" y="-350.4" font-family="Helvetica,sans-Serif" font-size="12.00"> &#160;ACTION move_arm</text>
<text text-anchor="middle" x="565" y="-337.4" font-family="Helvetica,sans-Serif" font-size="12.00">EMITS &#160;(15 topics):</text>
<text text-anchor="middle" x="565" y="-324.4" font-family="Helvetica,sans-Serif" font-size="12.00"> &#160;joint_states · imu_left · imu_right</text>
<text text-anchor="middle" x="565" y="-311.4" font-family="Helvetica,sans-Serif" font-size="12.00"> &#160;ee_pose_left · ee_pose_right · tf_tree</text>
<text text-anchor="middle" x="565" y="-298.4" font-family="Helvetica,sans-Serif" font-size="12.00"> &#160;clock · odometry · wrench</text>
<text text-anchor="middle" x="565" y="-285.4" font-family="Helvetica,sans-Serif" font-size="12.00"> &#160;contact_forces ×4 · gripper_state ×2</text>
</g>
<!-- backbone&#45;&gt;arm -->
<g id="edge9" class="edge">
<title>backbone&#45;&gt;arm</title>
<path fill="none" stroke="#2c3e50" stroke-width="1.8" d="M635.31,-642.42C530.68,-602.85 420,-561 420,-561 420,-561 420,-517 420,-517 420,-517 436.92,-499.55 459.2,-476.58"/>
<polygon fill="#2c3e50" stroke="#2c3e50" stroke-width="1.8" points="461.83,-478.9 466.28,-469.29 456.8,-474.03 461.83,-478.9"/>
<text text-anchor="middle" x="449.5" y="-536.5" font-family="Helvetica,sans-Serif" font-size="10.00" fill="#2c3e50">depends_on</text>
</g>
<!-- backbone&#45;&gt;arm -->
<g id="edge14" class="edge">
<title>backbone&#45;&gt;arm</title>
<path fill="none" stroke="#2471a3" stroke-width="1.8" stroke-dasharray="1,5" d="M635.33,-614.7C580.2,-585.48 534,-561 534,-561 534,-561 534,-517 534,-517 534,-517 537.34,-500.88 541.83,-479.23"/>
<polygon fill="#2471a3" stroke="#2471a3" stroke-width="1.8" points="545.29,-479.79 543.89,-469.29 538.44,-478.37 545.29,-479.79"/>
<text text-anchor="middle" x="573" y="-536.5" font-family="Helvetica,sans-Serif" font-size="10.00" fill="#2471a3">svc: get_arm_id</text>
</g>
<!-- backbone&#45;&gt;arm -->
<g id="edge19" class="edge">
<title>backbone&#45;&gt;arm</title>
<path fill="none" stroke="#7d3c98" stroke-width="4" d="M733.75,-596.95C705.37,-558.36 673.78,-515.41 645.68,-477.2"/>
<polygon fill="#7d3c98" stroke="#7d3c98" stroke-width="4" points="648.48,-475.1 639.74,-469.12 642.84,-479.25 648.48,-475.1"/>
<text text-anchor="middle" x="750.5" y="-536.5" font-family="Helvetica,sans-Serif" font-size="10.00" fill="#7d3c98">action: move_arm</text>
</g>
<!-- gripper -->
<g id="node10" class="node">
<title>gripper</title>
<path fill="#a9dfbf" stroke="#1e8449" stroke-width="2" d="M1076,-436.5C1076,-436.5 780,-436.5 780,-436.5 774,-436.5 768,-430.5 768,-424.5 768,-424.5 768,-308.5 768,-308.5 768,-302.5 774,-296.5 780,-296.5 780,-296.5 1076,-296.5 1076,-296.5 1082,-296.5 1088,-302.5 1088,-308.5 1088,-308.5 1088,-424.5 1088,-424.5 1088,-430.5 1082,-436.5 1076,-436.5"/>
<text text-anchor="middle" x="928" y="-408.9" font-family="Helvetica,sans-Serif" font-size="12.00">openarm01_gripper</text>
<text text-anchor="middle" x="928" y="-395.9" font-family="Helvetica,sans-Serif" font-size="12.00">─────────────────────────────</text>
<text text-anchor="middle" x="928" y="-382.9" font-family="Helvetica,sans-Serif" font-size="12.00">Variants: real (default) &#160;| &#160;isaac &#160;| &#160;mujoco</text>
<text text-anchor="middle" x="928" y="-369.9" font-family="Helvetica,sans-Serif" font-size="12.00">Instances: ×2 &#160;(left_gripper · right_gripper)</text>
<text text-anchor="middle" x="928" y="-356.9" font-family="Helvetica,sans-Serif" font-size="12.00">─────────────────────────────</text>
<text text-anchor="middle" x="928" y="-343.9" font-family="Helvetica,sans-Serif" font-size="12.00">EXPOSES:</text>
<text text-anchor="middle" x="928" y="-330.9" font-family="Helvetica,sans-Serif" font-size="12.00"> &#160;SVC &#160;&#160;&#160;get_gripper_id &#160;→ &#160;{ gripper_id: u8 }</text>
<text text-anchor="middle" x="928" y="-317.9" font-family="Helvetica,sans-Serif" font-size="12.00"> &#160;ACTION move_gripper</text>
</g>
<!-- backbone&#45;&gt;gripper -->
<g id="edge10" class="edge">
<title>backbone&#45;&gt;gripper</title>
<path fill="none" stroke="#2c3e50" stroke-width="1.8" d="M812.66,-596.67C811.7,-576.07 811,-561 811,-561 811,-561 811,-517 811,-517 811,-517 838.91,-481.33 867.47,-444.84"/>
<polygon fill="#2c3e50" stroke="#2c3e50" stroke-width="1.8" points="870.55,-446.59 873.95,-436.56 865.03,-442.28 870.55,-446.59"/>
<text text-anchor="middle" x="840.5" y="-536.5" font-family="Helvetica,sans-Serif" font-size="10.00" fill="#2c3e50">depends_on</text>
</g>
<!-- backbone&#45;&gt;gripper -->
<g id="edge15" class="edge">
<title>backbone&#45;&gt;gripper</title>
<path fill="none" stroke="#2471a3" stroke-width="1.8" stroke-dasharray="1,5" d="M863.78,-596.67C871.99,-576.07 878,-561 878,-561 878,-561 893.78,-499.95 907.61,-446.43"/>
<polygon fill="#2471a3" stroke="#2471a3" stroke-width="1.8" points="911.05,-447.1 910.16,-436.54 904.27,-445.34 911.05,-447.1"/>
<text text-anchor="middle" x="934.5" y="-536.5" font-family="Helvetica,sans-Serif" font-size="10.00" fill="#2471a3">svc: get_gripper_id</text>
</g>
<!-- backbone&#45;&gt;gripper -->
<g id="edge20" class="edge">
<title>backbone&#45;&gt;gripper</title>
<path fill="none" stroke="#7d3c98" stroke-width="4" d="M951.53,-596.67C975.48,-576.07 993,-561 993,-561 993,-561 993,-517 993,-517 993,-517 977.75,-481.93 962.03,-445.76"/>
<polygon fill="#7d3c98" stroke="#7d3c98" stroke-width="4" points="965.22,-444.34 958.03,-436.56 958.8,-447.13 965.22,-444.34"/>
<text text-anchor="middle" x="1045" y="-536.5" font-family="Helvetica,sans-Serif" font-size="10.00" fill="#7d3c98">action: move_gripper</text>
</g>
<!-- ik -->
<g id="node11" class="node">
<title>ik</title>
<path fill="#fad7a0" stroke="#a04000" stroke-width="2" d="M1296.5,-179C1296.5,-179 1003.5,-179 1003.5,-179 997.5,-179 991.5,-173 991.5,-167 991.5,-167 991.5,-38 991.5,-38 991.5,-32 997.5,-26 1003.5,-26 1003.5,-26 1296.5,-26 1296.5,-26 1302.5,-26 1308.5,-32 1308.5,-38 1308.5,-38 1308.5,-167 1308.5,-167 1308.5,-173 1302.5,-179 1296.5,-179"/>
<text text-anchor="middle" x="1150" y="-151.4" font-family="Helvetica,sans-Serif" font-size="12.00">inverse_kinematics</text>
<text text-anchor="middle" x="1150" y="-138.4" font-family="Helvetica,sans-Serif" font-size="12.00">─────────────────────────────</text>
<text text-anchor="middle" x="1150" y="-125.4" font-family="Helvetica,sans-Serif" font-size="12.00">NO VARIANTS &#160;&#160;×1 &#160;(ik)</text>
<text text-anchor="middle" x="1150" y="-112.4" font-family="Helvetica,sans-Serif" font-size="12.00">─────────────────────────────</text>
<text text-anchor="middle" x="1150" y="-99.4" font-family="Helvetica,sans-Serif" font-size="12.00">EXPOSES:</text>
<text text-anchor="middle" x="1150" y="-86.4" font-family="Helvetica,sans-Serif" font-size="12.00"> &#160;SVC &#160;solve_ik</text>
<text text-anchor="middle" x="1150" y="-73.4" font-family="Helvetica,sans-Serif" font-size="12.00"> &#160;&#160;&#160;in: &#160;arm_id · target_position[3]</text>
<text text-anchor="middle" x="1150" y="-60.4" font-family="Helvetica,sans-Serif" font-size="12.00"> &#160;&#160;&#160;&#160;&#160;&#160;&#160;&#160;target_orientation[4] · current_joints[]</text>
<text text-anchor="middle" x="1150" y="-47.4" font-family="Helvetica,sans-Serif" font-size="12.00"> &#160;&#160;&#160;out: success · joint_positions[]</text>
</g>
<!-- backbone&#45;&gt;ik -->
<g id="edge11" class="edge">
<title>backbone&#45;&gt;ik</title>
<path fill="none" stroke="#2c3e50" stroke-width="1.8" d="M997.95,-596.87C1014.95,-586.04 1026,-579 1026,-579 1026,-579 1109,-561 1109,-561 1109,-561 1118,-509 1118,-509 1118,-509 1133.82,-308.52 1143.21,-189.49"/>
<polygon fill="#2c3e50" stroke="#2c3e50" stroke-width="1.8" points="1146.72,-189.54 1144.02,-179.3 1139.74,-188.99 1146.72,-189.54"/>
<text text-anchor="middle" x="1167.5" y="-364" font-family="Helvetica,sans-Serif" font-size="10.00" fill="#2c3e50">depends_on</text>
</g>
<!-- backbone&#45;&gt;ik -->
<g id="edge16" class="edge">
<title>backbone&#45;&gt;ik</title>
<path fill="none" stroke="#2471a3" stroke-width="1.8" stroke-dasharray="1,5" d="M997.95,-596.87C1014.95,-586.04 1026,-579 1026,-579 1026,-579 1150,-561 1150,-561 1150,-561 1209,-509 1209,-509 1209,-509 1209,-246 1209,-246 1209,-246 1197.9,-219.2 1185.34,-188.85"/>
<polygon fill="#2471a3" stroke="#2471a3" stroke-width="1.8" points="1188.46,-187.24 1181.4,-179.34 1181.99,-189.92 1188.46,-187.24"/>
<text text-anchor="middle" x="1241" y="-364" font-family="Helvetica,sans-Serif" font-size="10.00" fill="#2471a3">svc: solve_ik</text>
</g>
<!-- collisions -->
<g id="node12" class="node">
<title>collisions</title>
<path fill="#fad7a0" stroke="#a04000" stroke-width="2" d="M1623,-172.5C1623,-172.5 1371,-172.5 1371,-172.5 1365,-172.5 1359,-166.5 1359,-160.5 1359,-160.5 1359,-44.5 1359,-44.5 1359,-38.5 1365,-32.5 1371,-32.5 1371,-32.5 1623,-32.5 1623,-32.5 1629,-32.5 1635,-38.5 1635,-44.5 1635,-44.5 1635,-160.5 1635,-160.5 1635,-166.5 1629,-172.5 1623,-172.5"/>
<text text-anchor="middle" x="1497" y="-144.9" font-family="Helvetica,sans-Serif" font-size="12.00">collisions_detection</text>
<text text-anchor="middle" x="1497" y="-131.9" font-family="Helvetica,sans-Serif" font-size="12.00">─────────────────────────────</text>
<text text-anchor="middle" x="1497" y="-118.9" font-family="Helvetica,sans-Serif" font-size="12.00">NO VARIANTS &#160;&#160;×1 &#160;(collisions)</text>
<text text-anchor="middle" x="1497" y="-105.9" font-family="Helvetica,sans-Serif" font-size="12.00">─────────────────────────────</text>
<text text-anchor="middle" x="1497" y="-92.9" font-family="Helvetica,sans-Serif" font-size="12.00">EXPOSES:</text>
<text text-anchor="middle" x="1497" y="-79.9" font-family="Helvetica,sans-Serif" font-size="12.00"> &#160;SVC &#160;check_collisions</text>
<text text-anchor="middle" x="1497" y="-66.9" font-family="Helvetica,sans-Serif" font-size="12.00"> &#160;&#160;&#160;in: &#160;arm_id · joint_positions[]</text>
<text text-anchor="middle" x="1497" y="-53.9" font-family="Helvetica,sans-Serif" font-size="12.00"> &#160;&#160;&#160;out: safe: bool</text>
</g>
<!-- backbone&#45;&gt;collisions -->
<g id="edge12" class="edge">
<title>backbone&#45;&gt;collisions</title>
<path fill="none" stroke="#2c3e50" stroke-width="1.8" d="M997.95,-596.87C1014.95,-586.04 1026,-579 1026,-579 1026,-579 1212,-561 1212,-561 1212,-561 1285,-509 1285,-509 1285,-509 1394.47,-299.61 1456.08,-181.77"/>
<polygon fill="#2c3e50" stroke="#2c3e50" stroke-width="1.8" points="1459.27,-183.23 1460.8,-172.75 1453.06,-179.99 1459.27,-183.23"/>
<text text-anchor="middle" x="1451.5" y="-364" font-family="Helvetica,sans-Serif" font-size="10.00" fill="#2c3e50">depends_on</text>
</g>
<!-- backbone&#45;&gt;collisions -->
<g id="edge17" class="edge">
<title>backbone&#45;&gt;collisions</title>
<path fill="none" stroke="#2471a3" stroke-width="1.8" stroke-dasharray="1,5" d="M997.95,-596.87C1014.95,-586.04 1026,-579 1026,-579 1026,-579 1280,-561 1280,-561 1280,-561 1493,-509 1493,-509 1493,-509 1495.05,-300.87 1496.22,-182.83"/>
<polygon fill="#2471a3" stroke="#2471a3" stroke-width="1.8" points="1499.72,-182.78 1496.32,-172.75 1492.72,-182.71 1499.72,-182.78"/>
<text text-anchor="middle" x="1546.5" y="-364" font-family="Helvetica,sans-Serif" font-size="10.00" fill="#2471a3">svc: check_collisions</text>
</g>
<!-- depth_camera&#45;&gt;joint_commander -->
<g id="edge23" class="edge">
<title>depth_camera&#45;&gt;joint_commander</title>
<path fill="none" stroke="#6c3483" stroke-width="2" stroke-dasharray="5,2" d="M1194.58,-815.19C1181.37,-857.97 1169,-898 1169,-898 1169,-898 1156.56,-909.94 1138.85,-926.94"/>
<polygon fill="#6c3483" stroke="#6c3483" stroke-width="2" points="1136.33,-924.52 1131.54,-933.97 1141.17,-929.57 1136.33,-924.52"/>
<text text-anchor="middle" x="1218.5" y="-890" font-family="Helvetica,sans-Serif" font-size="10.00" fill="#6c3483">video_stream</text>
<text text-anchor="middle" x="1218.5" y="-879" font-family="Helvetica,sans-Serif" font-size="10.00" fill="#6c3483">(pose_estimation)</text>
</g>
<!-- robot_initializer&#45;&gt;ik -->
<!-- arm&#45;&gt;joint_commander -->
<g id="edge22" class="edge">
<title>arm&#45;&gt;joint_commander</title>
<path fill="none" stroke="#1e8449" stroke-width="1.8" stroke-dasharray="5,2" d="M692.94,-469.21C721.24,-491.7 743,-509 743,-509 743,-509 1311,-517 1311,-517 1311,-517 1432,-579 1432,-579 1432,-579 1432,-868 1432,-868 1432,-868 1339.59,-906.93 1242.2,-947.97"/>
<polygon fill="#1e8449" stroke="#1e8449" stroke-width="1.8" points="1240.62,-944.83 1232.76,-951.94 1243.33,-951.28 1240.62,-944.83"/>
<text text-anchor="middle" x="1473" y="-715.5" font-family="Helvetica,sans-Serif" font-size="10.00" fill="#1e8449">EXT: joint_states</text>
<text text-anchor="middle" x="1473" y="-704.5" font-family="Helvetica,sans-Serif" font-size="10.00" fill="#1e8449">(no depends_on)</text>
</g>
<!-- arm&#45;&gt;backbone -->
<g id="edge21" class="edge">
<title>arm&#45;&gt;backbone</title>
<path fill="none" stroke="#1e8449" stroke-width="2" stroke-dasharray="5,2" d="M692.94,-469.21C721.24,-491.7 743,-509 743,-509 743,-509 1109,-517 1109,-517 1109,-517 1109,-561 1109,-561 1109,-561 1026,-579 1026,-579 1026,-579 1018.57,-583.74 1006.51,-591.42"/>
<polygon fill="#1e8449" stroke="#1e8449" stroke-width="2" points="1004.5,-588.54 997.95,-596.87 1008.26,-594.45 1004.5,-588.54"/>
<text text-anchor="middle" x="1204" y="-553" font-family="Helvetica,sans-Serif" font-size="10.00" fill="#1e8449">15 topics: joint_states · imu ×2</text>
<text text-anchor="middle" x="1204" y="-542" font-family="Helvetica,sans-Serif" font-size="10.00" fill="#1e8449">ee_pose ×2 · tf_tree · clock</text>
<text text-anchor="middle" x="1204" y="-531" font-family="Helvetica,sans-Serif" font-size="10.00" fill="#1e8449">odometry · wrench · contact_forces ×4</text>
<text text-anchor="middle" x="1204" y="-520" font-family="Helvetica,sans-Serif" font-size="10.00" fill="#1e8449">gripper_state ×2</text>
</g>
<!-- gripper&#45;&gt;collisions -->
</g>
</svg>
